PathFileType	4	(X/Y/Z)	C:\Users\Biomechanik\SynologyDrive\AlexP\Athlete_03\Athlete_3_25_03_31\Deadlift_bw_01\marker_experimental.trc
DataRate	CameraRate	NumFrames	NumMarkers	Units	OrigDataRate	OrigDataStartFrame	OrigNumFrames
200.000000	200.000000	4	55	mm	200.000000	1145	1527
Frame#	Time	BL			BR			GLAB			RFHD			LFHD			C7			T6			SPINMOL			SPINM2			SPINM3			T12			BELTOL			BELT2			BELT3			SACROL			SACR2			SACR3			LTHOL			LTH2			LTH3			LSHAOL			LSHA2			LSHA3			LHEE			LTOE			LM5			RTHOL			RTH2			RTH3			RSHAOL			RSHA2			RSHA3			RHEE			RTOE			RM5			STRN			XIPH			LACR			LUAOL			LUA2			LUA3			LLAOL			LLA2			LLA3			LWRR			LWRU			RACR			RUAOL			RUA2			RUA3			RLAOL			RLA2			RLA3			RWRR			RWRU			
		X1	Y1	Z1	X2	Y2	Z2	X3	Y3	Z3	X4	Y4	Z4	X5	Y5	Z5	X6	Y6	Z6	X7	Y7	Z7	X8	Y8	Z8	X9	Y9	Z9	X10	Y10	Z10	X11	Y11	Z11	X12	Y12	Z12	X13	Y13	Z13	X14	Y14	Z14	X15	Y15	Z15	X16	Y16	Z16	X17	Y17	Z17	X18	Y18	Z18	X19	Y19	Z19	X20	Y20	Z20	X21	Y21	Z21	X22	Y22	Z22	X23	Y23	Z23	X24	Y24	Z24	X25	Y25	Z25	X26	Y26	Z26	X27	Y27	Z27	X28	Y28	Z28	X29	Y29	Z29	X30	Y30	Z30	X31	Y31	Z31	X32	Y32	Z32	X33	Y33	Z33	X34	Y34	Z34	X35	Y35	Z35	X36	Y36	Z36	X37	Y37	Z37	X38	Y38	Z38	X39	Y39	Z39	X40	Y40	Z40	X41	Y41	Z41	X42	Y42	Z42	X43	Y43	Z43	X44	Y44	Z44	X45	Y45	Z45	X46	Y46	Z46	X47	Y47	Z47	X48	Y48	Z48	X49	Y49	Z49	X50	Y50	Z50	X51	Y51	Z51	X52	Y52	Z52	X53	Y53	Z53	X54	Y54	Z54	X55	Y55	Z55	

1146	5.725000000000001	1214.245727539062	39.25090789794936	-2269.22900390625	1226.852172851562	29.84681701660158	-248.7909393310547	617.8372802734375	1014.295288085938	-1218.4306640625	591.3528442382812	1062.491577148438	-1154.63671875	589.8638305664062	1055.62451171875	-1290.943115234375	342.7328796386719	1021.137878417969	-1216.472778320312	188.0595703125	951.2359008789064	-1218.439453125	159.1864471435547	934.0321655273439	-1240.20458984375	150.2963714599609	929.9866943359376	-1190.908813476562	108.0037460327148	893.6106567382814	-1227.573364257812	69.36557769775391	850.2883911132814	-1223.332885742188	32.96561813354492	850.1080322265626	-1236.164428710938	32.75100708007812	846.2442016601564	-1185.893188476562	-14.06793880462646	809.0454101562501	-1214.532836914062	-103.0802154541016	707.2290039062501	-1239.106567382812	-99.49668121337891	703.5524902343751	-1187.977172851562	-125.1006622314453	648.9775390625001	-1215.678588867188	138.8145599365234	468.9104309082032	-1432.079345703125	166.1492462158203	398.6720275878907	-1409.129516601562	191.9156036376953	438.7539367675782	-1426.65087890625	256.1452331542969	278.8086242675782	-1442.526611328125	187.0171966552734	241.2168121337891	-1429.9013671875	233.5077209472656	222.8027496337891	-1430.567260742188	79.03330230712891	70.88288116455087	-1319.514770507812	295.2567749023438	46.25096130371102	-1329.843505859375	242.5584716796875	30.09589767456064	-1430.990112304688	134.9985046386719	464.9889221191407	-1009.139099121094	209.1500244140625	490.4220886230469	-991.5448608398438	194.7034912109375	446.7458496093751	-1011.694580078125	254.2638092041016	301.1739807128907	-998.5032348632812	256.0708618164062	222.5028076171876	-1006.630493164062	216.8611907958984	252.8751983642579	-1010.699584960938	78.96910858154297	65.40850830078132	-1117.520751953125	289.912841796875	45.93667221069343	-1106.100219726562	237.4603424072266	40.25793457031256	-1004.627807617188	408.5106506347656	834.3598632812501	-1218.185302734375	318.1387023925781	718.5254516601564	-1219.219604492188	386.12939453125	909.2223510742189	-1382.879028320312	384.3841247558594	768.4458007812501	-1468.3349609375	379.965087890625	707.9926757812501	-1494.3974609375	397.0759582519531	708.0443725585939	-1446.6640625	384.1196594238281	503.2897033691407	-1504.95751953125	338.3172912597656	449.6638183593751	-1541.414672851562	378.3049011230469	442.0261840820314	-1512.516723632812	372.3120727539062	334.141326904297	-1520.082397460938	351.0296936035156	332.682342529297	-1444.153442382812	398.18994140625	907.1278076171876	-1058.419921875	383.9463806152344	770.3859863281251	-975.294921875	395.4060363769531	707.6412963867189	-984.4542236328125	372.0497131347656	715.8254394531251	-938.73291015625	361.6375732421875	493.9586181640626	-935.2139892578125	406.2072448730469	429.0940551757813	-947.9429321289062	359.3359680175781	431.1688537597657	-932.0232543945312	375.4998474121094	339.6058349609376	-938.2914428710938	351.6153564453125	328.2270202636719	-1015.378784179688	
1147	5.73	1214.246215820312	39.25083541870131	-2269.2294921875	1226.852294921875	29.8459873199463	-248.7935333251953	618.2352905273438	1012.93701171875	-1218.320678710938	591.793212890625	1061.143676757812	-1154.5234375	590.3171997070312	1054.309448242188	-1290.8251953125	343.1242370605469	1020.089416503906	-1216.386596679688	188.3851013183594	950.3441772460939	-1218.383422851562	159.4982604980469	933.1823120117189	-1240.166748046875	150.5883483886719	929.1305541992189	-1190.868530273438	108.2701416015625	892.8072509765626	-1227.5576171875	69.61624145507812	849.5280761718751	-1223.33447265625	33.20893859863281	849.3897094726564	-1236.16845703125	32.98221206665039	845.5220947265626	-1185.899047851562	-13.87099456787109	808.3632202148439	-1214.56689453125	-102.9742813110352	706.4386596679689	-1239.173583984375	-99.38866424560547	702.7607421875001	-1188.049194335938	-124.9772109985352	648.1777954101564	-1215.751098632812	139.0447082519531	468.4175720214845	-1432.212036132812	166.4774475097656	398.1906127929689	-1409.302368164062	192.1931304931641	438.3130493164064	-1426.80419921875	256.3961181640625	278.6285400390626	-1442.610473632812	187.2126312255859	241.1292877197266	-1429.992309570312	233.6869049072266	222.6600341796876	-1430.656127929688	79.04619598388672	70.90403747558602	-1319.51171875	295.2639770507812	46.24506759643563	-1329.84521484375	242.5478210449219	30.1003131866456	-1431.004150390625	135.212890625	464.4643249511719	-1009.126647949219	209.3303527832031	489.9888305664063	-991.5328369140625	194.9373321533203	446.2878723144532	-1011.664367675781	254.4761505126953	301.0410156250001	-998.4588012695312	256.20751953125	222.3710327148438	-1006.595092773438	217.0310974121094	252.785629272461	-1010.666564941406	78.98229217529297	65.42366027832038	-1117.537231445312	289.9174499511719	45.93230819702156	-1106.107543945312	237.4586181640625	40.25277709960944	-1004.619750976562	408.7588500976562	833.2111206054689	-1218.129516601562	318.2145690917969	717.4900512695314	-1219.255249023438	386.4237060546875	908.1752319335939	-1382.80224609375	384.58642578125	767.4279785156251	-1468.254760742188	380.1477966308594	706.9660034179689	-1494.306030273438	397.24072265625	707.0403442382814	-1446.583862304688	384.1944580078125	502.2557067871095	-1504.833618164062	338.3664245605469	448.6484375000001	-1541.274658203125	378.3467407226562	440.9956359863282	-1512.3720703125	372.2984008789062	333.1158447265626	-1519.915405273438	351.0160827636719	331.6873474121095	-1443.998168945312	398.45361328125	906.0005493164064	-1058.37451171875	384.177001953125	769.2586059570314	-975.3153686523438	395.6192321777344	706.5034179687501	-984.5072021484375	372.286376953125	714.6786499023439	-938.760498046875	361.8002319335938	492.8133544921876	-935.3297119140625	406.3359680175781	427.9260559082032	-948.1092529296875	359.4701843261719	430.0224914550782	-932.17578125	375.6072692871094	338.4553833007813	-938.51318359375	351.7249755859375	327.1454772949219	-1015.621459960938	
1148	5.735	1214.246704101562	39.25092315673842	-2269.229736328125	1226.852783203125	29.84523391723634	-248.7958526611328	618.6211547851562	1011.621887207031	-1218.208251953125	592.2199096679688	1059.837524414062	-1154.406982421875	590.7610473632812	1053.039184570312	-1290.704223632812	343.5027465820312	1019.079772949219	-1216.303100585938	188.7015686035156	949.4847412109376	-1218.329223632812	159.8029632568359	932.3626708984376	-1240.130615234375	150.8738555908203	928.3041381835939	-1190.82763671875	108.5305633544922	892.0322875976564	-1227.542846679688	69.86269378662109	848.7904663085939	-1223.336669921875	33.45033264160156	848.6912231445314	-1236.172485351562	33.20962524414062	844.8212890625001	-1185.907104492188	-13.67616558074951	807.6990966796876	-1214.603881835938	-102.8668899536133	705.6752319335939	-1239.2451171875	-99.279541015625	701.9951782226564	-1188.125366210938	-124.8528137207031	647.4053955078126	-1215.828979492188	139.2733154296875	467.9398803710939	-1432.34423828125	166.7997131347656	397.7234802246095	-1409.473754882812	192.4673614501953	437.8842773437501	-1426.955200195312	256.6401062011719	278.4546203613282	-1442.694458007812	187.4038391113281	241.0454864501954	-1430.081176757812	233.8620147705078	222.5211944580079	-1430.741088867188	79.05886077880859	70.92520904541024	-1319.509033203125	295.271240234375	46.23936843872078	-1329.846557617188	242.5388488769531	30.10289573669442	-1431.017456054688	135.4175567626953	463.9607543945313	-1009.116821289062	209.5015258789062	489.5715942382813	-991.5206909179688	195.1601409912109	445.8471069335938	-1011.635375976562	254.6809692382812	300.9129333496094	-998.4149780273438	256.3385620117188	222.2431640625001	-1006.559936523438	217.1941070556641	252.6984405517579	-1010.634521484375	78.99489593505859	65.43868255615241	-1117.552734375	289.9216613769531	45.92779159545906	-1106.114013671875	237.4571838378906	40.24770355224616	-1004.611999511719	409.0000915527344	832.1056518554689	-1218.077880859375	318.2912292480469	716.4931640625001	-1219.294189453125	386.7094116210938	907.1699218750001	-1382.72900390625	384.782958984375	766.4508056640626	-1468.179443359375	380.3259887695312	705.9829711914064	-1494.21826171875	397.4003295898438	706.0764160156251	-1446.507446289062	384.2630920410156	501.263397216797	-1504.710815429688	338.4124145507812	447.671600341797	-1541.13623046875	378.386474609375	440.0054321289064	-1512.229736328125	372.2840270996094	332.1282958984376	-1519.747314453125	351.0021362304688	330.735565185547	-1443.843505859375	398.7103881835938	904.9149780273439	-1058.330444335938	384.3921203613281	768.1744384765626	-975.33154296875	395.8193054199219	705.4121093750001	-984.548828125	372.5063781738281	713.5782470703126	-938.7784423828125	361.9503173828125	491.7131042480469	-935.4295043945312	406.4591674804688	426.8069763183594	-948.2505493164062	359.5913391113281	428.9208984375001	-932.3118286132812	375.69970703125	337.3476867675782	-938.7166137695312	351.8377380371094	326.1077270507813	-1015.851196289062	
1149	5.74	1214.2470703125	39.2511482238771	-2269.229736328125	1226.853393554688	29.84456062316896	-248.7977905273438	618.994140625	1010.351440429688	-1218.093627929688	592.632080078125	1058.574951171875	-1154.28759765625	591.1946411132812	1051.814697265625	-1290.580688476562	343.86767578125	1018.109436035156	-1216.222778320312	189.0083312988281	948.6572875976564	-1218.277099609375	160.0993804931641	931.5730590820314	-1240.096069335938	151.1525573730469	927.5074462890626	-1190.785766601562	108.7842864990234	891.2855224609376	-1227.528930664062	70.10443115234375	848.0753784179689	-1223.338989257812	33.68878936767578	848.0127563476564	-1236.177001953125	33.43276214599609	844.1414794921876	-1185.917602539062	-13.48222732543945	807.0528564453126	-1214.642944335938	-102.7578811645508	704.9381103515626	-1239.321533203125	-99.16965484619141	701.2549438476564	-1188.205932617188	-124.7276306152344	646.6594848632814	-1215.91259765625	139.5011444091797	467.4771118164064	-1432.474853515625	167.1169891357422	397.2703552246095	-1409.642333984375	192.7388610839844	437.4673767089845	-1427.10302734375	256.8778686523438	278.2866210937501	-1442.777587890625	187.5915069580078	240.9651947021485	-1430.167358398438	234.03369140625	222.386215209961	-1430.821166992188	79.07139587402344	70.94627380371102	-1319.506591796875	295.2784729003906	46.23365020751961	-1329.84716796875	242.5315246582031	30.10370635986337	-1431.0302734375	135.6132202148438	463.4770202636719	-1009.110412597656	209.6644592285156	489.1697692871094	-991.5089111328125	195.3730773925781	445.4229736328126	-1011.608520507812	254.8792419433594	300.7890319824219	-998.3719482421875	256.4653625488281	222.1186065673829	-1006.525451660156	217.3512725830078	252.6129913330079	-1010.603759765625	79.00711822509766	65.45353698730476	-1117.567626953125	289.925537109375	45.92306137084968	-1106.119873046875	237.4559173583984	40.2427711486817	-1004.604553222656	409.2340698242188	831.0444335937501	-1218.030395507812	318.3687438964844	715.5352172851564	-1219.335205078125	386.986328125	906.2066650390626	-1382.659423828125	384.9740295410156	765.5137939453126	-1468.108764648438	380.4996337890625	705.0425415039064	-1494.134399414062	397.5548095703125	705.1521606445314	-1446.434692382812	384.3262634277344	500.3118591308595	-1504.59033203125	338.4552917480469	446.7327270507814	-1540.999877929688	378.424072265625	439.0558166503907	-1512.09033203125	372.2689514160156	331.1782836914064	-1519.578735351562	350.9866333007812	329.8271484375001	-1443.689697265625	398.9603576660156	903.8718261718751	-1058.2880859375	384.5926208496094	767.1339111328126	-975.3434448242188	396.0065002441406	704.3685913085939	-984.5782470703125	372.7106018066406	712.5247192382814	-938.7868041992188	362.0879821777344	490.6587219238282	-935.5117797851562	406.5761108398438	425.7370300292969	-948.3649291992188	359.6996459960938	427.8649291992188	-932.4296264648438	375.7769165039062	336.2831726074219	-938.8997802734375	351.9541320800781	325.1146545410157	-1016.066955566406	
